<?xml version="1.0" standalone="no"?>
<!DOCTYPE svg PUBLIC "-//W3C//DTD SVG 1.1//EN" "http://www.w3.org/Graphics/SVG/1.1/DTD/svg11.dtd">
<svg version="1.1" xmlns="http://www.w3.org/2000/svg" viewBox="0 0 1860 678.9491315534317" width="1860" height="678.9491315534317"><!-- svg-source:excalidraw --><metadata></metadata><defs><style class="style-fonts">
      </style></defs><rect x="0" y="0" width="1860" height="678.9491315534317" fill="#f3f4f6"></rect><g transform="translate(18.180181550225086 10) rotate(0 429.5 21)"><text x="0" y="30.4306640625" font-family="Helvetica, sans-serif, Segoe UI Emoji" font-size="34px" fill="#0f172a" text-anchor="start" style="white-space: pre;" direction="ltr" dominant-baseline="alphabetic">Temporal queue splitting - full system flow</text></g><g transform="translate(18.180181550225086 56) rotate(0 900 11.5)"><text x="0" y="17.00537109375" font-family="Helvetica, sans-serif, Segoe UI Emoji" font-size="19px" fill="#334155" text-anchor="start" style="white-space: pre;" direction="ltr" dominant-baseline="alphabetic">Worker 1 runs with mirrord (4 queues, 2 split). Worker 2 runs normally without mirrord. Both share one Temporal.</text></g><g stroke-linecap="round" transform="translate(10 100.62201884815863) rotate(0 920 284.16355635263653)"><path d="M32 0 C720.12 0, 1408.24 0, 1808 0 C1829.33 0, 1840 10.67, 1840 32 C1840 147.73, 1840 263.47, 1840 536.33 C1840 557.66, 1829.33 568.33, 1808 568.33 C1381.02 568.33, 954.05 568.33, 32 568.33 C10.67 568.33, 0 557.66, 0 536.33 C0 376.08, 0 215.83, 0 32 C0 10.67, 10.67 0, 32 0" stroke="none" stroke-width="0" fill="#eef2ff"></path><path d="M32 0 C467.07 0, 902.15 0, 1808 0 M1808 0 C1829.33 0, 1840 10.67, 1840 32 M1840 32 C1840 135.05, 1840 238.09, 1840 536.33 M1840 536.33 C1840 557.66, 1829.33 568.33, 1808 568.33 M1808 568.33 C1287.5 568.33, 767.01 568.33, 32 568.33 M32 568.33 C10.67 568.33, 0 557.66, 0 536.33 M0 536.33 C0 419.76, 0 303.2, 0 32 M0 32 C0 10.67, 10.67 0, 32 0" stroke="#6366f1" stroke-width="1.5" fill="none" stroke-dasharray="8 9"></path></g><g stroke-linecap="round" transform="translate(78.18018155022509 196) rotate(0 170 80)"><path d="M32 0 C132.67 0, 233.35 0, 308 0 C329.33 0, 340 10.67, 340 32 C340 61.83, 340 91.66, 340 128 C340 149.33, 329.33 160, 308 160 C243.88 160, 179.76 160, 32 160 C10.67 160, 0 149.33, 0 128 C0 102.56, 0 77.12, 0 32 C0 10.67, 10.67 0, 32 0" stroke="none" stroke-width="0" fill="#f3e8ff"></path><path d="M32 0 C99.62 0, 167.23 0, 308 0 M32 0 C134.15 0, 236.31 0, 308 0 M308 0 C329.33 0, 340 10.67, 340 32 M308 0 C329.33 0, 340 10.67, 340 32 M340 32 C340 63.5, 340 94.99, 340 128 M340 32 C340 66.31, 340 100.63, 340 128 M340 128 C340 149.33, 329.33 160, 308 160 M340 128 C340 149.33, 329.33 160, 308 160 M308 160 C247.61 160, 187.22 160, 32 160 M308 160 C225.69 160, 143.38 160, 32 160 M32 160 C10.67 160, 0 149.33, 0 128 M32 160 C10.67 160, 0 149.33, 0 128 M0 128 C0 107.45, 0 86.91, 0 32 M0 128 C0 106.38, 0 84.76, 0 32 M0 32 C0 10.67, 10.67 0, 32 0 M0 32 C0 10.67, 10.67 0, 32 0" stroke="#a855f7" stroke-width="2" fill="none"></path></g><g transform="translate(90.18018155022509 238.5) rotate(0 158 37.5)"><text x="158" y="13.42529296875" font-family="Helvetica, sans-serif, Segoe UI Emoji" font-size="15px" fill="#0f172a" text-anchor="middle" style="white-space: pre;" direction="ltr" dominant-baseline="alphabetic">Temporal server</text><text x="158" y="32.17529296875" font-family="Helvetica, sans-serif, Segoe UI Emoji" font-size="15px" fill="#0f172a" text-anchor="middle" style="white-space: pre;" direction="ltr" dominant-baseline="alphabetic">real queues:</text><text x="158" y="50.92529296875" font-family="Helvetica, sans-serif, Segoe UI Emoji" font-size="15px" fill="#0f172a" text-anchor="middle" style="white-space: pre;" direction="ltr" dominant-baseline="alphabetic">checkout / shipping / billing</text><text x="158" y="69.67529296875" font-family="Helvetica, sans-serif, Segoe UI Emoji" font-size="15px" fill="#0f172a" text-anchor="middle" style="white-space: pre;" direction="ltr" dominant-baseline="alphabetic">notify / reports / audit</text></g><g stroke-linecap="round" transform="translate(568.4432311368682 200.229655753949) rotate(0 220 75.00000000000001)"><path d="M32 0 C108.98 0, 185.95 0, 408 0 C429.33 0, 440 10.67, 440 32 C440 63.08, 440 94.16, 440 118 C440 139.33, 429.33 150, 408 150 C294.01 150, 180.03 150, 32 150 C10.67 150, 0 139.33, 0 118 C0 87.77, 0 57.54, 0 32 C0 10.67, 10.67 0, 32 0" stroke="none" stroke-width="0" fill="#dbeafe"></path><path d="M32 0 C124.12 0, 216.23 0, 408 0 M32 0 C150.11 0, 268.21 0, 408 0 M408 0 C429.33 0, 440 10.67, 440 32 M408 0 C429.33 0, 440 10.67, 440 32 M440 32 C440 63.23, 440 94.45, 440 118 M440 32 C440 60.94, 440 89.88, 440 118 M440 118 C440 139.33, 429.33 150, 408 150 M440 118 C440 139.33, 429.33 150, 408 150 M408 150 C313.95 150, 219.89 150, 32 150 M408 150 C283.97 150, 159.94 150, 32 150 M32 150 C10.67 150, 0 139.33, 0 118 M32 150 C10.67 150, 0 139.33, 0 118 M0 118 C0 84.66, 0 51.32, 0 32 M0 118 C0 85.49, 0 52.98, 0 32 M0 32 C0 10.67, 10.67 0, 32 0 M0 32 C0 10.67, 10.67 0, 32 0" stroke="#2563eb" stroke-width="2" fill="none"></path></g><g transform="translate(579.5379293284832 252.90123167927874) rotate(0 184.43600951821884 23.99483692788891)"><text x="184.4360095182188" y="17.18067815969546" font-family="Helvetica, sans-serif, Segoe UI Emoji" font-size="19.195869542311133px" fill="#0f172a" text-anchor="middle" style="white-space: pre;" direction="ltr" dominant-baseline="alphabetic">mirrord operator</text><text x="184.4360095182188" y="41.17551508758437" font-family="Helvetica, sans-serif, Segoe UI Emoji" font-size="19.195869542311133px" fill="#0f172a" text-anchor="middle" style="white-space: pre;" direction="ltr" dominant-baseline="alphabetic">poll -&gt; filter -&gt; route -&gt; serve</text></g><g stroke-linecap="round"><g transform="translate(424.1801815502251 275.9852002425809) rotate(0 69.13152479332155 -0.35487236560646807)"><path d="M0 0 C33.87 -0.17, 67.75 -0.35, 138.26 -0.71 M0 0 C35.69 -0.18, 71.37 -0.37, 138.26 -0.71" stroke="#7c3aed" stroke-width="3" fill="none"></path></g><g transform="translate(424.1801815502251 275.9852002425809) rotate(0 69.13152479332155 -0.35487236560646807)"><path d="M114.81 7.96 C120.56 5.84, 126.3 3.71, 138.26 -0.71 M114.81 7.96 C120.87 5.72, 126.92 3.49, 138.26 -0.71" stroke="#7c3aed" stroke-width="3" fill="none"></path></g><g transform="translate(424.1801815502251 275.9852002425809) rotate(0 69.13152479332155 -0.35487236560646807)"><path d="M114.73 -9.14 C120.49 -7.07, 126.26 -5.01, 138.26 -0.71 M114.73 -9.14 C120.8 -6.96, 126.88 -4.79, 138.26 -0.71" stroke="#7c3aed" stroke-width="3" fill="none"></path></g></g><mask></mask><g transform="translate(456.36056426077545 246.16101023743494) rotate(0 22 8.5)"><text x="0" y="12.5302734375" font-family="Helvetica, sans-serif, Segoe UI Emoji" font-size="14px" fill="#7c3aed" text-anchor="start" style="white-space: pre;" direction="ltr" dominant-baseline="alphabetic">poll</text></g><g stroke-linecap="round" transform="translate(1118.1801815502251 156) rotate(0 350 125)"><path d="M32 0 C213.05 0, 394.09 0, 668 0 C689.33 0, 700 10.67, 700 32 C700 80.89, 700 129.78, 700 218 C700 239.33, 689.33 250, 668 250 C512.28 250, 356.56 250, 32 250 C10.67 250, 0 239.33, 0 218 C0 157.65, 0 97.31, 0 32 C0 10.67, 10.67 0, 32 0" stroke="none" stroke-width="0" fill="#dcfce7"></path><path d="M32 0 C187.83 0, 343.65 0, 668 0 M32 0 C160.53 0, 289.05 0, 668 0 M668 0 C689.33 0, 700 10.67, 700 32 M668 0 C689.33 0, 700 10.67, 700 32 M700 32 C700 75.35, 700 118.71, 700 218 M700 32 C700 86.79, 700 141.58, 700 218 M700 218 C700 239.33, 689.33 250, 668 250 M700 218 C700 239.33, 689.33 250, 668 250 M668 250 C469.04 250, 270.07 250, 32 250 M668 250 C417.96 250, 167.91 250, 32 250 M32 250 C10.67 250, 0 239.33, 0 218 M32 250 C10.67 250, 0 239.33, 0 218 M0 218 C0 155.71, 0 93.42, 0 32 M0 218 C0 165.23, 0 112.47, 0 32 M0 32 C0 10.67, 10.67 0, 32 0 M0 32 C0 10.67, 10.67 0, 32 0" stroke="#16a34a" stroke-width="2" fill="none"></path></g><g transform="translate(1138.1801815502251 170) rotate(0 232.5 10.5)"><text x="0" y="15.21533203125" font-family="Helvetica, sans-serif, Segoe UI Emoji" font-size="17px" fill="#166534" text-anchor="start" style="white-space: pre;" direction="ltr" dominant-baseline="alphabetic">Worker 1  -  split-enabled (runs with mirrord)</text></g><g stroke-linecap="round" transform="translate(1138.1801815502251 212) rotate(0 160 32)"><path d="M16 0 C109.49 0, 202.99 0, 304 0 C314.67 0, 320 5.33, 320 16 C320 26.03, 320 36.07, 320 48 C320 58.67, 314.67 64, 304 64 C213.08 64, 122.16 64, 16 64 C5.33 64, 0 58.67, 0 48 C0 41.25, 0 34.5, 0 16 C0 5.33, 5.33 0, 16 0" stroke="none" stroke-width="0" fill="#f0fdf4"></path><path d="M16 0 C86.57 0, 157.13 0, 304 0 M16 0 C115.67 0, 215.34 0, 304 0 M304 0 C314.67 0, 320 5.33, 320 16 M304 0 C314.67 0, 320 5.33, 320 16 M320 16 C320 24.58, 320 33.16, 320 48 M320 16 C320 24.76, 320 33.51, 320 48 M320 48 C320 58.67, 314.67 64, 304 64 M320 48 C320 58.67, 314.67 64, 304 64 M304 64 C204.88 64, 105.75 64, 16 64 M304 64 C239.26 64, 174.52 64, 16 64 M16 64 C5.33 64, 0 58.67, 0 48 M16 64 C5.33 64, 0 58.67, 0 48 M0 48 C0 38.13, 0 28.26, 0 16 M0 48 C0 40.43, 0 32.86, 0 16 M0 16 C0 5.33, 5.33 0, 16 0 M0 16 C0 5.33, 5.33 0, 16 0" stroke="#22c55e" stroke-width="2" fill="none"></path></g><g transform="translate(1150.1801815502251 235.5) rotate(0 148 8.5)"><text x="148" y="12.5302734375" font-family="Helvetica, sans-serif, Segoe UI Emoji" font-size="14px" fill="#0f172a" text-anchor="middle" style="white-space: pre;" direction="ltr" dominant-baseline="alphabetic">checkout  (SPLIT)</text></g><g stroke-linecap="round" transform="translate(1478.1801815502251 212) rotate(0 160 32)"><path d="M16 0 C121.01 0, 226.01 0, 304 0 C314.67 0, 320 5.33, 320 16 C320 27.66, 320 39.31, 320 48 C320 58.67, 314.67 64, 304 64 C192.68 64, 81.36 64, 16 64 C5.33 64, 0 58.67, 0 48 C0 38.48, 0 28.97, 0 16 C0 5.33, 5.33 0, 16 0" stroke="none" stroke-width="0" fill="#f0fdf4"></path><path d="M16 0 C86.57 0, 157.14 0, 304 0 M16 0 C99.54 0, 183.08 0, 304 0 M304 0 C314.67 0, 320 5.33, 320 16 M304 0 C314.67 0, 320 5.33, 320 16 M320 16 C320 25.7, 320 35.4, 320 48 M320 16 C320 24.09, 320 32.17, 320 48 M320 48 C320 58.67, 314.67 64, 304 64 M320 48 C320 58.67, 314.67 64, 304 64 M304 64 C195.85 64, 87.7 64, 16 64 M304 64 C230.15 64, 156.3 64, 16 64 M16 64 C5.33 64, 0 58.67, 0 48 M16 64 C5.33 64, 0 58.67, 0 48 M0 48 C0 38.97, 0 29.94, 0 16 M0 48 C0 35.54, 0 23.08, 0 16 M0 16 C0 5.33, 5.33 0, 16 0 M0 16 C0 5.33, 5.33 0, 16 0" stroke="#22c55e" stroke-width="2" fill="none"></path></g><g transform="translate(1490.1801815502251 235.5) rotate(0 148 8.5)"><text x="148" y="12.5302734375" font-family="Helvetica, sans-serif, Segoe UI Emoji" font-size="14px" fill="#0f172a" text-anchor="middle" style="white-space: pre;" direction="ltr" dominant-baseline="alphabetic">shipping  (SPLIT)</text></g><g stroke-linecap="round" transform="translate(1138.1801815502251 286) rotate(0 160 32)"><path d="M16 0 C74.92 0, 133.83 0, 304 0 C314.67 0, 320 5.33, 320 16 C320 22.88, 320 29.76, 320 48 C320 58.67, 314.67 64, 304 64 C229.88 64, 155.75 64, 16 64 C5.33 64, 0 58.67, 0 48 C0 35.72, 0 23.43, 0 16 C0 5.33, 5.33 0, 16 0" stroke="none" stroke-width="0" fill="#f8fafc"></path><path d="M16 0 C86.57 0, 157.14 0, 304 0 M16 0 C83.41 0, 150.81 0, 304 0 M304 0 C314.67 0, 320 5.33, 320 16 M304 0 C314.67 0, 320 5.33, 320 16 M320 16 C320 26.82, 320 37.64, 320 48 M320 16 C320 23.41, 320 30.83, 320 48 M320 48 C320 58.67, 314.67 64, 304 64 M320 48 C320 58.67, 314.67 64, 304 64 M304 64 C244.42 64, 184.84 64, 16 64 M304 64 C221.04 64, 138.07 64, 16 64 M16 64 C5.33 64, 0 58.67, 0 48 M16 64 C5.33 64, 0 58.67, 0 48 M0 48 C0 39.82, 0 31.63, 0 16 M0 48 C0 37.05, 0 26.1, 0 16 M0 16 C0 5.33, 5.33 0, 16 0 M0 16 C0 5.33, 5.33 0, 16 0" stroke="#94a3b8" stroke-width="2" fill="none"></path></g><g transform="translate(1150.1801815502251 309.5) rotate(0 148 8.5)"><text x="148" y="12.5302734375" font-family="Helvetica, sans-serif, Segoe UI Emoji" font-size="14px" fill="#0f172a" text-anchor="middle" style="white-space: pre;" direction="ltr" dominant-baseline="alphabetic">billing  (not split)</text></g><g stroke-linecap="round" transform="translate(1478.1801815502251 286) rotate(0 160 32)"><path d="M16 0 C86.43 0, 156.86 0, 304 0 C314.67 0, 320 5.33, 320 16 C320 24.5, 320 33, 320 48 C320 58.67, 314.67 64, 304 64 C209.47 64, 114.95 64, 16 64 C5.33 64, 0 58.67, 0 48 C0 39.35, 0 30.7, 0 16 C0 5.33, 5.33 0, 16 0" stroke="none" stroke-width="0" fill="#f8fafc"></path><path d="M16 0 C86.57 0, 157.15 0, 304 0 M16 0 C124.87 0, 233.75 0, 304 0 M304 0 C314.67 0, 320 5.33, 320 16 M304 0 C314.67 0, 320 5.33, 320 16 M320 16 C320 27.94, 320 39.88, 320 48 M320 16 C320 22.74, 320 29.49, 320 48 M320 48 C320 58.67, 314.67 64, 304 64 M320 48 C320 58.67, 314.67 64, 304 64 M304 64 C235.39 64, 166.79 64, 16 64 M304 64 C211.92 64, 119.85 64, 16 64 M16 64 C5.33 64, 0 58.67, 0 48 M16 64 C5.33 64, 0 58.67, 0 48 M0 48 C0 40.66, 0 33.32, 0 16 M0 48 C0 38.56, 0 29.12, 0 16 M0 16 C0 5.33, 5.33 0, 16 0 M0 16 C0 5.33, 5.33 0, 16 0" stroke="#94a3b8" stroke-width="2" fill="none"></path></g><g transform="translate(1490.1801815502251 309.5) rotate(0 148 8.5)"><text x="148" y="12.5302734375" font-family="Helvetica, sans-serif, Segoe UI Emoji" font-size="14px" fill="#0f172a" text-anchor="middle" style="white-space: pre;" direction="ltr" dominant-baseline="alphabetic">notify  (not split)</text></g><g transform="translate(1138.1801815502251 364) rotate(0 196.5 8.5)"><text x="0" y="12.5302734375" font-family="Helvetica, sans-serif, Segoe UI Emoji" font-size="14px" fill="#475569" text-anchor="start" style="white-space: pre;" direction="ltr" dominant-baseline="alphabetic">4 queues in one worker: 2 split, 2 pass through</text></g><g stroke-linecap="round"><g transform="translate(1014.4432311368685 275.55933613595556) rotate(0 51.86847520667834 2.7203319320222192)"><path d="M0 0 C25.42 1.33, 50.84 2.67, 103.74 5.44 M0 0 C40.87 2.14, 81.75 4.29, 103.74 5.44" stroke="#2563eb" stroke-width="3" fill="none"></path></g><g transform="translate(1014.4432311368685 275.55933613595556) rotate(0 51.86847520667834 2.7203319320222192)"><path d="M79.83 12.75 C85.69 10.96, 91.55 9.17, 103.74 5.44 M79.83 12.75 C89.25 9.87, 98.67 6.99, 103.74 5.44" stroke="#2563eb" stroke-width="3" fill="none"></path></g><g transform="translate(1014.4432311368685 275.55933613595556) rotate(0 51.86847520667834 2.7203319320222192)"><path d="M80.72 -4.33 C86.36 -1.93, 92 0.46, 103.74 5.44 M80.72 -4.33 C89.79 -0.48, 98.86 3.37, 103.74 5.44" stroke="#2563eb" stroke-width="3" fill="none"></path></g></g><mask></mask><g transform="translate(1030.746961992684 260.8780852331065) rotate(0 26 8.5)"><text x="0" y="12.5302734375" font-family="Helvetica, sans-serif, Segoe UI Emoji" font-size="14px" fill="#2563eb" text-anchor="start" style="white-space: pre;" direction="ltr" dominant-baseline="alphabetic">serve</text></g><g stroke-linecap="round" transform="translate(578.1801815502251 456) rotate(0 300 85)"><path d="M32 0 C216.63 0, 401.26 0, 568 0 C589.33 0, 600 10.67, 600 32 C600 63, 600 94, 600 138 C600 159.33, 589.33 170, 568 170 C457.94 170, 347.89 170, 32 170 C10.67 170, 0 159.33, 0 138 C0 107.62, 0 77.25, 0 32 C0 10.67, 10.67 0, 32 0" stroke="none" stroke-width="0" fill="#f8fafc"></path><path d="M32 0 C163.36 0, 294.71 0, 568 0 M32 0 C213.17 0, 394.34 0, 568 0 M568 0 C589.33 0, 600 10.67, 600 32 M568 0 C589.33 0, 600 10.67, 600 32 M600 32 C600 59.63, 600 87.25, 600 138 M600 32 C600 69.99, 600 107.97, 600 138 M600 138 C600 159.33, 589.33 170, 568 170 M600 138 C600 159.33, 589.33 170, 568 170 M568 170 C398.31 170, 228.63 170, 32 170 M568 170 C354.24 170, 140.47 170, 32 170 M32 170 C10.67 170, 0 159.33, 0 138 M32 170 C10.67 170, 0 159.33, 0 138 M0 138 C0 110.08, 0 82.16, 0 32 M0 138 C0 108.63, 0 79.25, 0 32 M0 32 C0 10.67, 10.67 0, 32 0 M0 32 C0 10.67, 10.67 0, 32 0" stroke="#94a3b8" stroke-width="2" fill="none"></path></g><g transform="translate(598.1801815502251 470) rotate(0 163.5 10.5)"><text x="0" y="15.21533203125" font-family="Helvetica, sans-serif, Segoe UI Emoji" font-size="17px" fill="#475569" text-anchor="start" style="white-space: pre;" direction="ltr" dominant-baseline="alphabetic">Worker 2  -  normal (no mirrord)</text></g><g stroke-linecap="round" transform="translate(598.1801815502251 514) rotate(0 135 32)"><path d="M16 0 C107.49 0, 198.99 0, 254 0 C264.67 0, 270 5.33, 270 16 C270 26.98, 270 37.96, 270 48 C270 58.67, 264.67 64, 254 64 C188.27 64, 122.54 64, 16 64 C5.33 64, 0 58.67, 0 48 C0 36.06, 0 24.12, 0 16 C0 5.33, 5.33 0, 16 0" stroke="none" stroke-width="0" fill="#f8fafc"></path><path d="M16 0 C74.33 0, 132.66 0, 254 0 M16 0 C83.11 0, 150.23 0, 254 0 M254 0 C264.67 0, 270 5.33, 270 16 M254 0 C264.67 0, 270 5.33, 270 16 M270 16 C270 25.46, 270 34.92, 270 48 M270 16 C270 26.8, 270 37.59, 270 48 M270 48 C270 58.67, 264.67 64, 254 64 M270 48 C270 58.67, 264.67 64, 254 64 M254 64 C171.19 64, 88.39 64, 16 64 M254 64 C199.15 64, 144.3 64, 16 64 M16 64 C5.33 64, 0 58.67, 0 48 M16 64 C5.33 64, 0 58.67, 0 48 M0 48 C0 40.42, 0 32.83, 0 16 M0 48 C0 40.64, 0 33.28, 0 16 M0 16 C0 5.33, 5.33 0, 16 0 M0 16 C0 5.33, 5.33 0, 16 0" stroke="#94a3b8" stroke-width="2" fill="none"></path></g><g transform="translate(610.1801815502251 537.5) rotate(0 123 8.5)"><text x="123" y="12.5302734375" font-family="Helvetica, sans-serif, Segoe UI Emoji" font-size="14px" fill="#0f172a" text-anchor="middle" style="white-space: pre;" direction="ltr" dominant-baseline="alphabetic">reports</text></g><g stroke-linecap="round" transform="translate(888.1801815502251 514) rotate(0 135 32)"><path d="M16 0 C69.41 0, 122.81 0, 254 0 C264.67 0, 270 5.33, 270 16 C270 28.6, 270 41.21, 270 48 C270 58.67, 264.67 64, 254 64 C171.41 64, 88.82 64, 16 64 C5.33 64, 0 58.67, 0 48 C0 39.69, 0 31.39, 0 16 C0 5.33, 5.33 0, 16 0" stroke="none" stroke-width="0" fill="#f8fafc"></path><path d="M16 0 C74.33 0, 132.66 0, 254 0 M16 0 C69.78 0, 123.57 0, 254 0 M254 0 C264.67 0, 270 5.33, 270 16 M254 0 C264.67 0, 270 5.33, 270 16 M270 16 C270 26.58, 270 37.16, 270 48 M270 16 C270 26.13, 270 36.25, 270 48 M270 48 C270 58.67, 264.67 64, 254 64 M270 48 C270 58.67, 264.67 64, 254 64 M254 64 C163.73 64, 73.47 64, 16 64 M254 64 C191.62 64, 129.24 64, 16 64 M16 64 C5.33 64, 0 58.67, 0 48 M16 64 C5.33 64, 0 58.67, 0 48 M0 48 C0 41.26, 0 34.52, 0 16 M0 48 C0 35.75, 0 23.5, 0 16 M0 16 C0 5.33, 5.33 0, 16 0 M0 16 C0 5.33, 5.33 0, 16 0" stroke="#94a3b8" stroke-width="2" fill="none"></path></g><g transform="translate(900.1801815502251 537.5) rotate(0 123 8.5)"><text x="123" y="12.5302734375" font-family="Helvetica, sans-serif, Segoe UI Emoji" font-size="14px" fill="#0f172a" text-anchor="middle" style="white-space: pre;" direction="ltr" dominant-baseline="alphabetic">audit</text></g><g transform="translate(598.1801815502251 590) rotate(0 192.5 8.5)"><text x="0" y="12.5302734375" font-family="Helvetica, sans-serif, Segoe UI Emoji" font-size="14px" fill="#475569" text-anchor="start" style="white-space: pre;" direction="ltr" dominant-baseline="alphabetic">polls Temporal directly, operator not involved</text></g><g stroke-linecap="round"><g transform="translate(234.25042590519536 355.8892876668142) rotate(0 168.96487782251486 92.56228588189941)"><path d="M0 0 C0.45 44.99, 0.9 89.97, 1.84 183.54 M1.84 183.54 C31.54 183.9, 61.23 184.25, 124.58 185.01 M124.58 185.01 C179.78 185.04, 234.97 185.07, 337.93 185.12" stroke="#64748b" stroke-width="3.5" fill="none" stroke-dasharray="8 11"></path></g><g transform="translate(234.25042590519536 355.8892876668142) rotate(0 168.96487782251486 92.56228588189941)"><path d="M314.43 193.66 C320.19 191.57, 325.95 189.48, 337.93 185.12" stroke="#64748b" stroke-width="3.5" fill="none"></path></g><g transform="translate(234.25042590519536 355.8892876668142) rotate(0 168.96487782251486 92.56228588189941)"><path d="M314.44 176.56 C320.2 178.66, 325.96 180.76, 337.93 185.12" stroke="#64748b" stroke-width="3.5" fill="none"></path></g></g><mask></mask><g transform="translate(257.15294681210173 509.0890701352055) rotate(0 65.74462890625 8.75)"><text x="0" y="12.5302734375" font-family="Helvetica, sans-serif, Segoe UI Emoji" font-size="14px" fill="#64748b" text-anchor="start" style="white-space: pre;" direction="ltr" dominant-baseline="alphabetic">poll direct, no mirrord</text></g><g transform="translate(35.981249197921954 115.55911276053774) rotate(0 27.506103515625 9.375)"><text x="0" y="13.42529296875" font-family="Helvetica, sans-serif, Segoe UI Emoji" font-size="15px" fill="#1971c2" text-anchor="start" style="white-space: pre;" direction="ltr" dominant-baseline="alphabetic">Full flow</text></g></svg>